<svg xmlns="http://www.w3.org/2000/svg" xmlns:xlink="http://www.w3.org/1999/xlink" width="700" zoomAndPan="magnify" viewBox="0 0 375 374.999991" height="700" preserveAspectRatio="xMidYMid meet" version="1.0"><defs><clipPath id="300f32fc99"><path d="M 58.402344 44.921875 L 316.402344 44.921875 L 316.402344 329.921875 L 58.402344 329.921875 Z M 58.402344 44.921875 " clip-rule="nonzero"/></clipPath><clipPath id="acceadf51c"><path d="M 4.097656 49.140625 L 58.097656 49.140625 L 58.097656 325.890625 L 4.097656 325.890625 Z M 4.097656 49.140625 " clip-rule="nonzero"/></clipPath><clipPath id="3fd18b76a9"><path d="M 310.652344 49.105469 L 364.652344 49.105469 L 364.652344 325.855469 L 310.652344 325.855469 Z M 310.652344 49.105469 " clip-rule="nonzero"/></clipPath></defs><path fill="#737373" d="M 126.34375 221.992188 L 180.617188 246.121094 L 180.617188 312.691406 L 126.34375 288.570312 Z M 72.066406 183.011719 L 112.773438 201.105469 L 112.773438 134.53125 L 72.066406 116.433594 Z M 187.402344 108.335938 L 136.496094 130.222656 L 187.402344 152.851562 L 238.308594 130.222656 Z M 262.03125 201.105469 L 302.738281 183.011719 L 302.738281 116.433594 L 262.03125 134.53125 Z M 262.03125 201.105469 " fill-opacity="1" fill-rule="nonzero"/><path fill="#545454" d="M 187.402344 93.566406 L 148.03125 76.636719 L 187.402344 59.136719 L 226.773438 76.636719 Z M 126.34375 207.136719 L 180.617188 231.261719 L 180.617188 164.691406 L 126.34375 140.5625 Z M 262.03125 282.535156 L 302.738281 264.441406 L 302.738281 197.863281 L 262.03125 215.957031 Z M 262.03125 282.535156 " fill-opacity="1" fill-rule="nonzero"/><path fill="#ffffff" d="M 72.066406 197.863281 L 112.773438 215.960938 L 112.773438 282.535156 L 72.066406 264.441406 Z M 243.667969 84.144531 L 204.582031 100.949219 L 255.195312 122.714844 L 292.816406 105.992188 Z M 194.1875 312.691406 L 248.460938 288.566406 L 248.460938 221.992188 L 194.1875 246.117188 Z M 194.1875 312.691406 " fill-opacity="1" fill-rule="nonzero"/><path fill="#000000" d="M 170.222656 100.949219 L 119.609375 122.714844 L 81.988281 105.992188 L 131.136719 84.144531 L 170.222656 100.953125 Z M 194.1875 231.261719 L 248.460938 207.136719 L 248.460938 140.5625 L 194.1875 164.691406 Z M 194.1875 231.261719 " fill-opacity="1" fill-rule="nonzero"/><g clip-path="url(#300f32fc99)"><path fill="#000000" d="M 62.527344 275.050781 L 184.644531 329.339844 L 184.703125 329.351562 C 185.53125 329.710938 186.441406 329.921875 187.402344 329.921875 C 188.363281 329.921875 189.273438 329.710938 190.101562 329.351562 L 190.15625 329.339844 L 312.277344 275.050781 C 314.730469 273.957031 316.304688 271.535156 316.304688 268.851562 L 316.304688 105.992188 C 316.304688 103.308594 314.730469 100.882812 312.277344 99.792969 L 190.15625 45.503906 C 188.410156 44.722656 186.394531 44.722656 184.644531 45.503906 L 62.527344 99.792969 C 60.074219 100.886719 58.5 103.308594 58.5 105.992188 L 58.5 268.851562 C 58.5 271.535156 60.074219 273.960938 62.527344 275.050781 Z M 180.617188 312.691406 L 126.34375 288.566406 L 126.34375 221.992188 L 180.617188 246.117188 Z M 180.617188 231.261719 L 126.34375 207.132812 L 126.34375 140.5625 L 180.617188 164.6875 Z M 187.402344 152.847656 L 136.496094 130.21875 L 187.402344 108.335938 L 238.308594 130.21875 Z M 248.460938 288.566406 L 194.1875 312.691406 L 194.1875 246.117188 L 248.460938 221.988281 Z M 248.460938 207.132812 L 194.1875 231.261719 L 194.1875 164.691406 L 248.460938 140.5625 L 248.460938 207.136719 Z M 302.738281 264.441406 L 262.03125 282.535156 L 262.03125 215.960938 L 302.738281 197.863281 L 302.738281 264.445312 Z M 302.738281 183.007812 L 262.03125 201.101562 L 262.03125 134.527344 L 302.738281 116.433594 Z M 292.816406 105.988281 L 255.195312 122.710938 L 204.582031 100.949219 L 243.667969 84.140625 Z M 187.402344 59.132812 L 226.773438 76.632812 L 187.402344 93.5625 L 148.03125 76.632812 Z M 131.136719 84.144531 L 170.222656 100.949219 L 119.609375 122.710938 L 81.988281 105.988281 Z M 72.066406 116.433594 L 112.773438 134.53125 L 112.773438 201.105469 L 72.066406 183.011719 Z M 72.066406 197.863281 L 112.773438 215.960938 L 112.773438 282.535156 L 72.066406 264.441406 Z M 72.066406 197.863281 " fill-opacity="1" fill-rule="nonzero"/></g><g clip-path="url(#acceadf51c)"><path fill="#000000" d="M 53.902344 325.742188 L 51.28125 325.742188 C 34.792969 325.742188 21.382812 312.25 21.382812 295.667969 L 21.382812 206.234375 L 5.738281 190.503906 C 4.101562 188.855469 4.101562 186.179688 5.738281 184.535156 L 21.382812 168.800781 L 21.382812 79.367188 C 21.382812 62.785156 34.792969 49.292969 51.28125 49.292969 L 53.902344 49.292969 C 56.21875 49.292969 58.097656 51.183594 58.097656 53.515625 C 58.097656 55.84375 56.21875 57.734375 53.902344 57.734375 L 51.28125 57.734375 C 39.421875 57.734375 29.773438 67.4375 29.773438 79.367188 L 29.773438 170.546875 C 29.773438 171.667969 29.332031 172.738281 28.546875 173.53125 L 14.640625 187.515625 L 28.546875 201.503906 C 29.332031 202.292969 29.773438 203.367188 29.773438 204.488281 L 29.773438 295.667969 C 29.773438 307.597656 39.421875 317.300781 51.28125 317.300781 L 53.902344 317.300781 C 56.21875 317.300781 58.097656 319.191406 58.097656 321.519531 C 58.097656 323.851562 56.21875 325.742188 53.902344 325.742188 " fill-opacity="1" fill-rule="nonzero"/></g><g clip-path="url(#3fd18b76a9)"><path fill="#000000" d="M 314.84375 49.257812 L 317.46875 49.257812 C 333.953125 49.257812 347.367188 62.75 347.367188 79.328125 L 347.367188 168.761719 L 363.011719 184.496094 C 364.648438 186.144531 364.648438 188.816406 363.011719 190.464844 L 347.367188 206.199219 L 347.367188 295.632812 C 347.367188 312.214844 333.953125 325.707031 317.46875 325.707031 L 314.84375 325.707031 C 312.527344 325.707031 310.648438 323.816406 310.648438 321.484375 C 310.648438 319.15625 312.527344 317.265625 314.84375 317.265625 L 317.46875 317.265625 C 329.324219 317.265625 338.972656 307.5625 338.972656 295.632812 L 338.972656 204.453125 C 338.972656 203.332031 339.417969 202.257812 340.203125 201.46875 L 354.109375 187.480469 L 340.203125 173.496094 C 339.417969 172.703125 338.972656 171.632812 338.972656 170.511719 L 338.972656 79.328125 C 338.972656 67.402344 329.324219 57.699219 317.46875 57.699219 L 314.84375 57.699219 C 312.527344 57.699219 310.648438 55.808594 310.648438 53.476562 C 310.648438 51.148438 312.527344 49.257812 314.84375 49.257812 " fill-opacity="1" fill-rule="nonzero"/></g></svg>